{"title":"Star Trek-The Motion Picture (1979) DVDRip (mult-lang) [=Faith=]","uid":12006770,"size":1861957081,"categoryP":"video","categoryS":"movies","magnet":"?xt=urn:btih:490da0c3582a20797132a1e8d002ae27e0cc2e08&amp;dn=Star+Trek-The+Motion+Picture+%281979%29+DVDRip+%28mult-lang%29+%5B%3DFaith%3D%5D&amp;tr=udp%3A%2F%2Ftracker.openbittorrent.com%3A80&amp;tr=udp%3A%2F%2Fopen.demonii.com%3A1337&amp;tr=udp%3A%2F%2Ftracker.coppersurfer.tk%3A6969&amp;tr=udp%3A%2F%2Fexodus.desync.com%3A6969","seeders":0,"leechers":1,"uploader":"Faithwyn","files":6,"time":1433913155,"description":"Star Trek: The Motion Picture\n\nWhen an alien spacecraft of enormous power is spotted approaching Earth, Admiral Kirk resumes command of the Starship Enterprise in order to intercept, examine and hopefully stop the intruder.\n\nThe Film:\n\nDirected by: Robert Wise\nProduced by: Gene Roddenberry\nScreenplay by: Harold Livingston\nStory by: Alan Dean Foster\nBased on: Star Trek by Gene Roddenberry\nStarring: William Shatner, Leonard Nimoy, DeForest Kelley, James Doohan\n          Walter Koenig, Nichelle Nichols, George Takei, Persis Khambatta,\n          Stephen Collins\nMusic by: Jerry Goldsmith\nCinematography: Richard H. Kline\nEdited by: Todd C. Ramsay\nDistributed by: Paramount Pictures\nRelease date: December 7, 1979\nRunning time: 132 minutes\nScreen: Letterbox\nCountry: United States\nLanguage: English, French, Spanish, Portuguese\nSubtitles: English, French, Spanish, Portuguese\nIMDB Rating: 6.3 \n\nGeneral:\n\nComplete name : StarTrek - The Motion Picture.m4v\nFormat : MPEG-4\nFormat profile : Base Media / Version 2\nCodec ID : mp42\nFile size : 1.73 GiB\nDuration : 2h 11mn\nOverall bit rate mode : Variable\nOverall bit rate : 1 880 Kbps\nEncoded date : UTC 2015-06-09 21:54:54\nTagged date : UTC 2015-06-09 22:15:52\nWriting application : HandBrake 0.9.9\n\nVideo:\n\nID : 1\nFormat : AVC\nFormat/Info : Advanced Video Codec\nFormat profile : &lt;a class=&quot;__cf_email__&quot; href=&quot;/cdn-cgi/l/email-protection&quot; data-cfemail=&quot;8ac2e3ede2cac6bea4bb&quot;&gt;[email&amp;#160;protected]&lt;/a&gt;&lt;script data-cfhash='f9e31' type=&quot;text/javascript&quot;&gt;\n/* &lt;![CDATA[ */!function(){try{var t=&quot;currentScript&quot;in document?document.currentScript:function(){for(var t=document.getElementsByTagName(&quot;script&quot;),e=t.length;e--;)if(t[e].getAttribute(&quot;data-cfhash&quot;))return t[e]}();if(t&amp;&amp;t.previousSibling){var e,r,n,i,c=t.previousSibling,a=c.getAttribute(&quot;data-cfemail&quot;);if(a){for(e=&quot;&quot;,r=parseInt(a.substr(0,2),16),n=2;a.length-n;n+=2)i=parseInt(a.substr(n,2),16)^r,e+=String.fromCharCode(i);e=document.createTextNode(e),c.parentNode.replaceChild(e,c)}t.parentNode.removeChild(t);}}catch(u){}}()/* ]]&gt; */&lt;/script&gt;\nFormat settings, CABAC : Yes\nFormat settings, ReFrames : 4 frames\nCodec ID : avc1\nCodec ID/Info : Advanced Video Coding\nDuration : 2h 11mn\nBit rate : 841 Kbps\nWidth : 720 pixels\nHeight : 368 pixels\nDisplay aspect ratio : 2.35:1\nOriginal display aspect ratio : 2.35:1\nFrame rate mode : Variable\nFrame rate : 23.976 fps\nMinimum frame rate : 16.940 fps\nMaximum frame rate : 29.970 fps\nColor space : YUV\nChroma subsampling : 4:2:0\nBit depth : 8 bits\nScan type : Progressive\nBits/(Pixel*Frame) : 0.132\nStream size : 794 MiB (45%)\nWriting library : x264 core 130 r2273 b3065e6\nEncoding settings : (see nfo file)\nEncoded date : UTC 2015-06-09 21:54:54\nTagged date : UTC 2015-06-09 22:15:52\nColor primaries : BT.601 NTSC\nTransfer characteristics : BT.709\nMatrix coefficients : BT.601\n\n\nAudio 1:\n\nID : 2\nFormat : AC-3\nFormat/Info : Audio Coding 3\nMode extension : CM (complete main)\nFormat settings, Endianness : Big\nCodec ID : ac-3\nDuration : 2h 11mn\nBit rate mode : Constant\nBit rate : 448 Kbps\nChannel(s) : 6 channels\nChannel positions : Front: L C R, Side: L R, LFE\nSampling rate : 48.0 KHz\nBit depth : 16 bits\nCompression mode : Lossy\nStream size : 423 MiB (24%)\nLanguage : English\nEncoded date : UTC 2015-06-09 21:54:54\nTagged date : UTC 2015-06-09 22:15:51\n\nAudio 2:\nID : 3\nFormat : AC-3\nFormat/Info : Audio Coding 3\nFormat profile : Dolby Digital\nMode extension : CM (complete main)\nFormat settings, Endianness : Big\nCodec ID : ac-3\nDuration : 2h 11mn\nBit rate mode : Constant\nBit rate : 192 Kbps\nChannel(s) : 2 channels\nChannel positions : Front: L R\nSampling rate : 48.0 KHz\nBit depth : 16 bits\nCompression mode : Lossy\nStream size : 181 MiB (10%)\nLanguage : French\nEncoded date : UTC 2015-06-09 21:54:54\nTagged date : UTC 2015-06-09 22:15:51\n\nAudio 3:\nID : 4\nFormat : AC-3\nFormat/Info : Audio Coding 3\nMode extension : CM (complete main)\nFormat settings, Endianness : Big\nCodec ID : ac-3\nDuration : 2h 11mn\nBit rate mode : Constant\nBit rate : 192 Kbps\nChannel(s) : 2 channels\nChannel positions : Front: L R\nSampling rate : 48.0 KHz\nBit depth : 16 bits\nCompression mode : Lossy\nStream size : 181 MiB (10%)\nLanguage : Spanish\nEncoded date : UTC 2015-06-09 21:54:54\nTagged date : UTC 2015-06-09 22:15:51\n\nAudio 4:\n\nID : 5\nFormat : AC-3\nFormat/Info : Audio Coding 3\nMode extension : CM (complete main)\nFormat settings, Endianness : Big\nCodec ID : ac-3\nDuration : 2h 11mn\nBit rate mode : Constant\nBit rate : 192 Kbps\nChannel(s) : 2 channels\nChannel positions : Front: L R\nSampling rate : 48.0 KHz\nBit depth : 16 bits\nCompression mode : Lossy\nStream size : 181 MiB (10%)\nLanguage : Portuguese\nEncoded date : UTC 2015-06-09 21:54:54\nTagged date : UTC 2015-06-09 22:15:51","torrent":{"xt":"urn:btih:490da0c3582a20797132a1e8d002ae27e0cc2e08","amp;dn":"Star+Trek-The+Motion+Picture+%281979%29+DVDRip+%28mult-lang%29+%5B%3DFaith%3D%5D","amp;tr":["udp%3A%2F%2Ftracker.openbittorrent.com%3A80","udp%3A%2F%2Fopen.demonii.com%3A1337","udp%3A%2F%2Ftracker.coppersurfer.tk%3A6969","udp%3A%2F%2Fexodus.desync.com%3A6969"],"infoHash":"490da0c3582a20797132a1e8d002ae27e0cc2e08","infoHashBuffer":{"type":"Buffer","data":[73,13,160,195,88,42,32,121,113,50,161,232,208,2,174,39,224,204,46,8]},"announce":[],"urlList":[]}}